<svg width="139" height="40" viewBox="0 0 139 40" fill="none" xmlns="http://www.w3.org/2000/svg" class="css-119oh74"><path d="M133.852 0.80125C136.235 0.80125 138.175 2.68501 138.175 5V35C138.175 37.315 136.235 39.1988 133.852 39.1988H5.14815C2.76456 39.1988 0.82499 37.315 0.82499 35V5C0.82499 2.68501 2.76456 0.80125 5.14815 0.80125H133.852ZM133.852 3.8147e-06H5.14815C2.31795 3.8147e-06 0 2.25126 0 5V35C0 37.7487 2.31795 40 5.14815 40H133.852C136.682 40 139 37.7487 139 35V5C139 2.25126 136.682 3.8147e-06 133.852 3.8147e-06Z" fill="white"></path><path d="M31.0207 19.7838C30.9908 16.5608 33.7379 14.9928 33.8635 14.9198C32.3077 12.7168 29.8963 12.4158 29.0489 12.3918C27.0236 12.1848 25.0591 13.5688 24.0274 13.5688C22.9751 13.5688 21.3864 12.4118 19.6741 12.4458C17.4707 12.4788 15.4094 13.7178 14.2789 15.6418C11.9457 19.5648 13.6858 25.3298 15.9211 28.5008C17.0393 30.0538 18.3459 31.7878 20.0561 31.7268C21.7293 31.6598 22.3543 30.6908 24.3734 30.6908C26.3739 30.6908 26.9608 31.7268 28.705 31.6878C30.5007 31.6598 31.6312 30.1278 32.7103 28.5608C34.0025 26.7808 34.5214 25.0278 34.542 24.9378C34.4998 24.9238 31.0546 23.6468 31.0207 19.7838Z" fill="white"></path><path d="M27.7258 10.3058C28.6257 9.2128 29.2415 7.7258 29.0705 6.2168C27.7681 6.2728 26.1392 7.0918 25.2012 8.1608C24.3713 9.1028 23.63 10.6468 23.8215 12.0988C25.2846 12.2048 26.7868 11.3818 27.7258 10.3058Z" fill="white"></path><path d="M50.5034 10.0087C50.5034 11.1857 50.14 12.0717 49.4141 12.6667C48.7418 13.2157 47.7863 13.4907 46.5486 13.4907C45.935 13.4907 45.4099 13.4647 44.9702 13.4127V6.9817C45.5437 6.8917 46.1615 6.8457 46.8287 6.8457C48.0076 6.8457 48.8962 7.0947 49.4954 7.5927C50.1668 8.1557 50.5034 8.9607 50.5034 10.0087ZM49.3657 10.0377C49.3657 9.2747 49.1577 8.6897 48.7418 8.2817C48.3258 7.8747 47.7183 7.6707 46.9183 7.6707C46.5785 7.6707 46.2892 7.6927 46.0493 7.7387V12.6277C46.1821 12.6477 46.4251 12.6567 46.7782 12.6567C47.604 12.6567 48.2414 12.4337 48.6903 11.9877C49.1392 11.5417 49.3657 10.8917 49.3657 10.0377Z" fill="white"></path><path d="M56.536 11.037C56.536 11.762 56.3229 12.356 55.8966 12.822C55.4498 13.301 54.8577 13.54 54.1185 13.54C53.406 13.54 52.8386 13.311 52.4155 12.851C51.9933 12.392 51.7822 11.813 51.7822 11.115C51.7822 10.385 51.9995 9.78605 52.436 9.32105C52.8726 8.85605 53.4595 8.62305 54.1988 8.62305C54.9113 8.62305 55.4837 8.85205 55.9172 9.31105C56.3291 9.75705 56.536 10.333 56.536 11.037ZM55.4168 11.071C55.4168 10.636 55.32 10.263 55.1275 9.95205C54.901 9.57605 54.5787 9.38805 54.1596 9.38805C53.7262 9.38805 53.3967 9.57605 53.1702 9.95205C52.9766 10.263 52.8808 10.642 52.8808 11.09C52.8808 11.525 52.9776 11.898 53.1702 12.209C53.4039 12.585 53.7293 12.773 54.1493 12.773C54.5612 12.773 54.8845 12.582 55.1172 12.199C55.3169 11.882 55.4168 11.506 55.4168 11.071Z" fill="white"></path><path d="M64.6249 8.71875L63.1062 13.4327H62.1177L61.4886 11.3857C61.3291 10.8747 61.1993 10.3667 61.0984 9.86275H61.0789C60.9852 10.3807 60.8554 10.8877 60.6886 11.3857L60.0204 13.4327H59.0206L57.5925 8.71875H58.7014L59.2502 10.9597C59.3831 11.4897 59.4922 11.9947 59.5797 12.4727H59.5993C59.6796 12.0787 59.8124 11.5768 59.9998 10.9698L60.6886 8.71975H61.5679L62.2279 10.9217C62.3875 11.4587 62.5172 11.9757 62.6171 12.4737H62.647C62.7201 11.9887 62.8303 11.4717 62.9765 10.9217L63.5654 8.71975H64.6249V8.71875Z" fill="white"></path><path d="M70.2188 13.4331H69.1397V10.7331C69.1397 9.90112 68.8144 9.48512 68.1616 9.48512C67.8414 9.48512 67.5829 9.59912 67.3822 9.82812C67.1834 10.0571 67.0825 10.3271 67.0825 10.6361V13.4321H66.0035V10.0661C66.0035 9.65212 65.9901 9.20312 65.9644 8.71712H66.9126L66.9631 9.45412H66.993C67.1186 9.22512 67.306 9.03612 67.552 8.88512C67.8445 8.70912 68.1719 8.62012 68.5302 8.62012C68.9832 8.62012 69.3601 8.76212 69.6597 9.04712C70.0324 9.39612 70.2188 9.91712 70.2188 10.6091V13.4331Z" fill="white"></path><path d="M73.1942 13.4327H72.1162V6.55566H73.1942V13.4327Z" fill="white"></path><path d="M79.5473 11.037C79.5473 11.762 79.3341 12.356 78.9079 12.822C78.461 13.301 77.8679 13.54 77.1297 13.54C76.4162 13.54 75.8488 13.311 75.4267 12.851C75.0045 12.392 74.7935 11.813 74.7935 11.115C74.7935 10.385 75.0107 9.78605 75.4473 9.32105C75.8838 8.85605 76.4707 8.62305 77.209 8.62305C77.9225 8.62305 78.4939 8.85205 78.9284 9.31105C79.3403 9.75705 79.5473 10.333 79.5473 11.037ZM78.427 11.071C78.427 10.636 78.3302 10.263 78.1377 9.95205C77.9122 9.57605 77.5889 9.38805 77.1709 9.38805C76.7364 9.38805 76.4069 9.57605 76.1814 9.95205C75.9878 10.263 75.8921 10.642 75.8921 11.09C75.8921 11.525 75.9889 11.898 76.1814 12.209C76.4151 12.585 76.7405 12.773 77.1606 12.773C77.5724 12.773 77.8947 12.582 78.1274 12.199C78.3282 11.882 78.427 11.506 78.427 11.071Z" fill="white"></path><path d="M84.7693 13.433H83.8004L83.7201 12.89H83.6903C83.3587 13.323 82.8861 13.54 82.2725 13.54C81.8143 13.54 81.4436 13.397 81.1646 13.113C80.9113 12.855 80.7847 12.534 80.7847 12.153C80.7847 11.577 81.0318 11.138 81.5291 10.834C82.0254 10.53 82.7235 10.381 83.6223 10.388V10.3C83.6223 9.67905 83.2867 9.36905 82.6143 9.36905C82.1355 9.36905 81.7134 9.48605 81.3489 9.71805L81.1296 9.03005C81.5806 8.75905 82.1376 8.62305 82.7945 8.62305C84.063 8.62305 84.6993 9.27305 84.6993 10.573V12.309C84.6993 12.78 84.723 13.155 84.7693 13.433ZM83.6491 11.813V11.086C82.4588 11.066 81.8637 11.383 81.8637 12.036C81.8637 12.282 81.9317 12.466 82.0707 12.589C82.2097 12.712 82.3868 12.773 82.5978 12.773C82.8347 12.773 83.056 12.7 83.2578 12.555C83.4607 12.409 83.5853 12.224 83.6316 11.997C83.6429 11.946 83.6491 11.884 83.6491 11.813Z" fill="white"></path><path d="M90.9009 13.4327H89.9433L89.8929 12.6757H89.863C89.5572 13.2517 89.0362 13.5397 88.3042 13.5397C87.7194 13.5397 87.2323 13.3167 86.8462 12.8707C86.4601 12.4247 86.2676 11.8457 86.2676 11.1347C86.2676 10.3717 86.4766 9.75366 86.8967 9.28166C87.3034 8.84166 87.8017 8.62166 88.3948 8.62166C89.0465 8.62166 89.5027 8.83466 89.7621 9.26166H89.7827V6.55566H90.8628V12.1627C90.8628 12.6217 90.8752 13.0447 90.9009 13.4327ZM89.7827 11.4447V10.6587C89.7827 10.5227 89.7724 10.4127 89.7529 10.3287C89.6921 10.0767 89.5614 9.86466 89.3626 9.69366C89.1619 9.52266 88.9199 9.43666 88.6409 9.43666C88.2383 9.43666 87.9232 9.59166 87.6915 9.90266C87.4619 10.2137 87.3456 10.6107 87.3456 11.0957C87.3456 11.5617 87.4558 11.9397 87.6771 12.2307C87.9109 12.5407 88.2259 12.6957 88.6203 12.6957C88.9745 12.6957 89.2576 12.5667 89.4728 12.3077C89.6808 12.0687 89.7827 11.7807 89.7827 11.4447Z" fill="white"></path><path d="M100.13 11.037C100.13 11.762 99.9166 12.356 99.4904 12.822C99.0435 13.301 98.4525 13.54 97.7122 13.54C97.0007 13.54 96.4334 13.311 96.0092 12.851C95.5871 12.392 95.376 11.813 95.376 11.115C95.376 10.385 95.5932 9.78605 96.0298 9.32105C96.4664 8.85605 97.0532 8.62305 97.7935 8.62305C98.505 8.62305 99.0785 8.85205 99.511 9.31105C99.9228 9.75705 100.13 10.333 100.13 11.037ZM99.0116 11.071C99.0116 10.636 98.9148 10.263 98.7223 9.95205C98.4947 9.57605 98.1735 9.38805 97.7534 9.38805C97.3209 9.38805 96.9915 9.57605 96.7639 9.95205C96.5703 10.263 96.4746 10.642 96.4746 11.09C96.4746 11.525 96.5714 11.898 96.7639 12.209C96.9976 12.585 97.323 12.773 97.7431 12.773C98.1549 12.773 98.4793 12.582 98.712 12.199C98.9107 11.882 99.0116 11.506 99.0116 11.071Z" fill="white"></path><path d="M105.932 13.4331H104.854V10.7331C104.854 9.90112 104.528 9.48512 103.874 9.48512C103.554 9.48512 103.296 9.59912 103.096 9.82812C102.896 10.0571 102.796 10.3271 102.796 10.6361V13.4321H101.716V10.0661C101.716 9.65212 101.704 9.20312 101.678 8.71712H102.625L102.676 9.45412H102.706C102.832 9.22512 103.02 9.03612 103.265 8.88512C103.558 8.70912 103.885 8.62012 104.244 8.62012C104.696 8.62012 105.073 8.76212 105.373 9.04712C105.746 9.39612 105.932 9.91712 105.932 10.6091V13.4331Z" fill="white"></path><path d="M113.193 9.50392H112.005V11.7939C112.005 12.3759 112.216 12.6669 112.634 12.6669C112.828 12.6669 112.988 12.6509 113.115 12.6179L113.143 13.4129C112.93 13.4909 112.65 13.5299 112.305 13.5299C111.879 13.5299 111.547 13.4039 111.307 13.1519C111.066 12.8999 110.947 12.4759 110.947 11.8809V9.50392H110.237V8.71892H110.947V7.85492L112.004 7.54492V8.71792H113.192V9.50392H113.193Z" fill="white"></path><path d="M118.906 13.4327H117.826V10.7527C117.826 9.90766 117.5 9.48466 116.849 9.48466C116.348 9.48466 116.006 9.72966 115.819 10.2197C115.787 10.3227 115.768 10.4487 115.768 10.5967V13.4317H114.69V6.55566H115.768V9.39666H115.789C116.129 8.87966 116.616 8.62166 117.247 8.62166C117.694 8.62166 118.064 8.76366 118.357 9.04866C118.722 9.40366 118.906 9.93166 118.906 10.6297V13.4327Z" fill="white"></path><path d="M124.799 10.8523C124.799 11.0403 124.784 11.1983 124.758 11.3273H121.522C121.537 11.7933 121.691 12.1483 121.991 12.3943C122.265 12.6143 122.618 12.7243 123.05 12.7243C123.529 12.7243 123.966 12.6503 124.359 12.5013L124.528 13.2293C124.068 13.4233 123.526 13.5203 122.899 13.5203C122.147 13.5203 121.555 13.3053 121.127 12.8753C120.697 12.4453 120.483 11.8683 120.483 11.1443C120.483 10.4333 120.682 9.84128 121.083 9.36928C121.501 8.86528 122.066 8.61328 122.779 8.61328C123.478 8.61328 124.008 8.86528 124.366 9.36928C124.655 9.76928 124.799 10.2643 124.799 10.8523ZM123.769 10.5813C123.777 10.2703 123.706 10.0023 123.56 9.77628C123.373 9.48528 123.087 9.33928 122.701 9.33928C122.349 9.33928 122.062 9.48128 121.843 9.76628C121.663 9.99328 121.557 10.2643 121.522 10.5813H123.769Z" fill="white"></path><path d="M55.2344 31.5043H52.8961L51.6152 27.5953H47.1631L45.943 31.5043H43.6665L48.0774 18.1963H50.8018L55.2344 31.5043ZM51.2291 25.9553L50.0708 22.4803C49.9483 22.1253 49.7187 21.2893 49.3799 19.9733H49.3387C49.2038 20.5393 48.9866 21.3753 48.688 22.4803L47.5503 25.9553H51.2291Z" fill="white"></path><path d="M66.5778 26.5879C66.5778 28.2199 66.1237 29.5099 65.2156 30.4569C64.4022 31.2999 63.3921 31.7209 62.1864 31.7209C60.885 31.7209 59.9501 31.2669 59.3807 30.3589H59.3395V35.4139H57.1443V25.0669C57.1443 24.0409 57.1165 22.9879 57.063 21.9079H58.9935L59.1161 23.4289H59.1573C59.8893 22.2829 61.0003 21.7109 62.4912 21.7109C63.6567 21.7109 64.6297 22.1579 65.4081 23.0529C66.1886 23.9489 66.5778 25.1269 66.5778 26.5879ZM64.3414 26.6659C64.3414 25.7319 64.1252 24.9619 63.6907 24.3559C63.2161 23.7239 62.5787 23.4079 61.7797 23.4079C61.2381 23.4079 60.746 23.5839 60.3063 23.9309C59.8656 24.2809 59.5773 24.7379 59.4425 25.3039C59.3745 25.5679 59.3405 25.7839 59.3405 25.9539V27.5539C59.3405 28.2519 59.5609 28.8409 60.0016 29.3219C60.4422 29.8029 61.0147 30.0429 61.719 30.0429C62.5458 30.0429 63.1893 29.7329 63.6495 29.1149C64.1108 28.4959 64.3414 27.6799 64.3414 26.6659Z" fill="white"></path><path d="M77.942 26.5879C77.942 28.2199 77.4879 29.5099 76.5788 30.4569C75.7664 31.2999 74.7563 31.7209 73.5506 31.7209C72.2492 31.7209 71.3143 31.2669 70.7459 30.3589H70.7047V35.4139H68.5096V25.0669C68.5096 24.0409 68.4818 22.9879 68.4282 21.9079H70.3588L70.4813 23.4289H70.5225C71.2535 22.2829 72.3645 21.7109 73.8564 21.7109C75.0209 21.7109 75.9939 22.1579 76.7744 23.0529C77.5518 23.9489 77.942 25.1269 77.942 26.5879ZM75.7056 26.6659C75.7056 25.7319 75.4884 24.9619 75.0539 24.3559C74.5792 23.7239 73.944 23.4079 73.1439 23.4079C72.6013 23.4079 72.1102 23.5839 71.6695 23.9309C71.2288 24.2809 70.9415 24.7379 70.8067 25.3039C70.7397 25.5679 70.7047 25.7839 70.7047 25.9539V27.5539C70.7047 28.2519 70.9251 28.8409 71.3637 29.3219C71.8044 29.8019 72.3769 30.0429 73.0832 30.0429C73.91 30.0429 74.5535 29.7329 75.0137 29.1149C75.475 28.4959 75.7056 27.6799 75.7056 26.6659Z" fill="white"></path><path d="M90.6476 27.772C90.6476 28.904 90.243 29.825 89.4306 30.536C88.5379 31.313 87.2951 31.701 85.6982 31.701C84.2237 31.701 83.0417 31.425 82.147 30.872L82.6556 29.095C83.6193 29.661 84.6768 29.945 85.8289 29.945C86.6557 29.945 87.2992 29.763 87.7615 29.401C88.2218 29.039 88.4514 28.553 88.4514 27.947C88.4514 27.407 88.2619 26.952 87.882 26.583C87.5041 26.214 86.873 25.871 85.9916 25.554C83.5926 24.685 82.3941 23.412 82.3941 21.738C82.3941 20.644 82.8142 19.747 83.6554 19.049C84.4935 18.35 85.6117 18.001 87.0099 18.001C88.2568 18.001 89.2926 18.212 90.1194 18.633L89.5706 20.371C88.7984 19.963 87.9253 19.759 86.9481 19.759C86.1759 19.759 85.5726 19.944 85.1401 20.312C84.7746 20.641 84.5913 21.042 84.5913 21.517C84.5913 22.043 84.8003 22.478 85.2204 22.82C85.5859 23.136 86.2501 23.478 87.2138 23.847C88.3927 24.308 89.2586 24.847 89.8157 25.465C90.3706 26.081 90.6476 26.852 90.6476 27.772Z" fill="white"></path><path d="M97.9053 23.5076H95.4857V28.1666C95.4857 29.3516 95.912 29.9436 96.7666 29.9436C97.1589 29.9436 97.4842 29.9106 97.7416 29.8446L97.8024 31.4636C97.3699 31.6206 96.8005 31.6996 96.0952 31.6996C95.2283 31.6996 94.5508 31.4426 94.0617 30.9296C93.5747 30.4156 93.3297 29.5536 93.3297 28.3426V23.5056H91.8882V21.9056H93.3297V20.1486L95.4857 19.5166V21.9056H97.9053V23.5076Z" fill="white"></path><path d="M108.823 26.6269C108.823 28.1019 108.388 29.3129 107.521 30.2599C106.612 31.2349 105.405 31.7209 103.901 31.7209C102.451 31.7209 101.297 31.2539 100.436 30.3199C99.5754 29.3859 99.145 28.2069 99.145 26.7859C99.145 25.2989 99.5878 24.0809 100.476 23.1339C101.363 22.1859 102.559 21.7119 104.064 21.7119C105.513 21.7119 106.68 22.1789 107.56 23.1139C108.402 24.0209 108.823 25.1919 108.823 26.6269ZM106.545 26.6959C106.545 25.8109 106.35 25.0519 105.956 24.4189C105.496 23.6529 104.838 23.2709 103.985 23.2709C103.103 23.2709 102.433 23.6539 101.972 24.4189C101.578 25.0529 101.383 25.8239 101.383 26.7359C101.383 27.6209 101.578 28.3799 101.972 29.0119C102.447 29.7779 103.11 30.1599 103.966 30.1599C104.804 30.1599 105.462 29.7699 105.936 28.9919C106.341 28.3469 106.545 27.5799 106.545 26.6959Z" fill="white"></path><path d="M115.958 23.7829C115.741 23.7439 115.509 23.7239 115.266 23.7239C114.494 23.7239 113.897 24.0069 113.477 24.5739C113.111 25.0739 112.928 25.7059 112.928 26.4689V31.5039H110.734L110.754 24.9299C110.754 23.8239 110.726 22.8169 110.672 21.9089H112.584L112.664 23.7449H112.725C112.957 23.1139 113.322 22.6059 113.823 22.2249C114.312 21.8819 114.84 21.7109 115.409 21.7109C115.612 21.7109 115.795 21.7249 115.958 21.7499V23.7829Z" fill="white"></path><path d="M125.775 26.2524C125.775 26.6344 125.75 26.9564 125.695 27.2194H119.109C119.135 28.1674 119.453 28.8924 120.065 29.3924C120.62 29.8394 121.338 30.0634 122.219 30.0634C123.194 30.0634 124.084 29.9124 124.884 29.6094L125.228 31.0894C124.293 31.4854 123.189 31.6824 121.915 31.6824C120.383 31.6824 119.181 31.2444 118.305 30.3694C117.432 29.4944 116.995 28.3194 116.995 26.8454C116.995 25.3984 117.401 24.1934 118.216 23.2324C119.068 22.2064 120.22 21.6934 121.67 21.6934C123.094 21.6934 124.172 22.2064 124.904 23.2324C125.484 24.0474 125.775 25.0554 125.775 26.2524ZM123.682 25.6994C123.696 25.0674 123.553 24.5214 123.256 24.0604C122.876 23.4674 122.292 23.1714 121.506 23.1714C120.789 23.1714 120.205 23.4604 119.759 24.0404C119.394 24.5014 119.176 25.0544 119.109 25.6984H123.682V25.6994Z" fill="white"></path></svg>