<?xml version="1.0" encoding="UTF-8"?>
<svg id="Layer_2" data-name="Layer 2" xmlns="http://www.w3.org/2000/svg" viewBox="0 0 518.998 128.099">
  <g id="Layer_1-2" data-name="Layer 1">
    <rect width="518.998" height="128.099" rx="16.098" ry="16.098" style="fill: #202124; stroke-width: 0px;"/>
    <g>
      <path d="M97.749,36.847h7.28v39.585h19.955v6.955h-27.235v-46.54Z" style="fill: #f6f3f1; stroke-width: 0px;"/>
      <path d="M136.001,82.217c-2.535-1.473-4.518-3.52-5.947-6.143-1.431-2.621-2.146-5.558-2.146-8.808,0-3.12.683-5.99,2.048-8.612,1.364-2.622,3.282-4.701,5.752-6.24,2.471-1.538,5.286-2.307,8.45-2.307,3.25,0,6.077.715,8.482,2.145,2.405,1.43,4.235,3.412,5.492,5.947s1.886,5.45,1.886,8.743c0,.39-.022.78-.065,1.17-.044.39-.064.607-.064.65h-24.83c.216,2.947,1.277,5.222,3.185,6.825,1.906,1.604,4.072,2.405,6.5,2.405,3.727,0,6.586-1.732,8.58-5.2l6.11,2.925c-1.431,2.644-3.413,4.756-5.948,6.337-2.534,1.582-5.515,2.373-8.938,2.373-3.163,0-6.012-.737-8.547-2.21ZM152.739,63.302c-.087-1.04-.434-2.102-1.04-3.185-.607-1.083-1.55-2.004-2.827-2.763-1.279-.757-2.871-1.137-4.778-1.137-2.123,0-3.954.65-5.492,1.95-1.538,1.3-2.59,3.013-3.152,5.135h17.29Z" style="fill: #f6f3f1; stroke-width: 0px;"/>
      <path d="M170.191,83.03c-1.843-.932-3.294-2.231-4.355-3.9-1.062-1.668-1.593-3.564-1.593-5.688,0-3.38,1.268-6.045,3.803-7.995,2.535-1.95,5.753-2.925,9.652-2.925,3.423,0,6.348.585,8.775,1.755v-1.365c0-1.95-.77-3.564-2.308-4.842-1.538-1.278-3.391-1.917-5.558-1.917-3.293,0-5.938,1.344-7.93,4.03l-5.46-3.77c1.517-2.036,3.412-3.596,5.688-4.68,2.274-1.083,4.843-1.625,7.702-1.625,4.723,0,8.374,1.181,10.953,3.542,2.577,2.362,3.867,5.688,3.867,9.978v19.76h-6.955v-3.965h-.39c-1.04,1.474-2.362,2.676-3.966,3.607-1.604.931-3.51,1.397-5.72,1.397-2.297,0-4.366-.466-6.207-1.397ZM182.021,77.309c1.364-.801,2.447-1.862,3.25-3.185.801-1.321,1.202-2.74,1.202-4.257-2.297-1.256-4.745-1.885-7.345-1.885-2.384,0-4.248.52-5.59,1.56-1.344,1.04-2.016,2.363-2.016,3.965,0,1.474.596,2.676,1.788,3.607,1.191.932,2.609,1.397,4.257,1.397,1.603,0,3.088-.4,4.453-1.203Z" style="fill: #f6f3f1; stroke-width: 0px;"/>
      <path d="M200.513,51.147h6.76v4.81h.39c.693-1.646,1.95-3.033,3.771-4.16,1.819-1.126,3.683-1.69,5.59-1.69,1.56,0,2.838.238,3.835.715v7.41c-1.474-.736-3.12-1.105-4.94-1.105-2.34,0-4.301.902-5.882,2.705-1.583,1.803-2.373,4.007-2.373,6.614v16.941h-7.149v-32.24Z" style="fill: #f6f3f1; stroke-width: 0px;"/>
      <path d="M225.668,51.147h6.76v4.29h.39c.953-1.56,2.34-2.837,4.16-3.835,1.82-.996,3.791-1.495,5.915-1.495,3.986,0,7.009,1.17,9.067,3.51,2.058,2.34,3.088,5.569,3.088,9.685v20.085h-7.15v-19.11c0-5.07-2.362-7.605-7.085-7.605-2.384,0-4.312.954-5.785,2.86-1.474,1.907-2.21,4.16-2.21,6.76v17.095h-7.149v-32.24Z" style="fill: #f6f3f1; stroke-width: 0px;"/>
      <path d="M276.887,51.147h6.76v4.29h.39c.953-1.56,2.34-2.837,4.16-3.835,1.82-.996,3.727-1.495,5.72-1.495,2.341,0,4.377.542,6.11,1.625,1.732,1.083,3.012,2.535,3.835,4.355,1.126-1.82,2.633-3.271,4.518-4.355,1.885-1.083,4.04-1.625,6.468-1.625,3.77,0,6.63,1.16,8.58,3.477,1.949,2.319,2.925,5.471,2.925,9.458v20.345h-7.15v-19.175c0-2.687-.531-4.615-1.592-5.785-1.062-1.17-2.633-1.755-4.713-1.755-2.298,0-4.149.942-5.558,2.827-1.408,1.885-2.112,4.171-2.112,6.858v17.03h-7.15v-19.175c0-2.687-.542-4.615-1.625-5.785s-2.708-1.755-4.875-1.755c-2.253,0-4.073.942-5.46,2.827-1.387,1.885-2.08,4.171-2.08,6.858v17.03h-7.149v-32.24Z" style="fill: #f6f3f1; stroke-width: 0px;"/>
      <path d="M340.067,82.184c-2.558-1.495-4.562-3.542-6.013-6.143-1.452-2.6-2.178-5.525-2.178-8.775s.726-6.175,2.178-8.775c1.451-2.6,3.455-4.647,6.013-6.143,2.556-1.495,5.438-2.242,8.645-2.242,3.25,0,6.152.747,8.71,2.242,2.557,1.495,4.55,3.542,5.98,6.143,1.43,2.6,2.145,5.525,2.145,8.775s-.715,6.175-2.145,8.775c-1.431,2.6-3.424,4.648-5.98,6.143-2.558,1.495-5.46,2.243-8.71,2.243-3.207,0-6.089-.748-8.645-2.243ZM353.522,76.562c1.473-.866,2.664-2.101,3.574-3.705.91-1.603,1.365-3.466,1.365-5.59,0-2.166-.455-4.051-1.365-5.655-.91-1.603-2.102-2.828-3.574-3.672-1.475-.845-3.078-1.268-4.811-1.268-1.689,0-3.282.422-4.777,1.268-1.495.845-2.688,2.07-3.575,3.672-.889,1.604-1.332,3.489-1.332,5.655,0,2.124.455,3.987,1.364,5.59.91,1.604,2.102,2.838,3.575,3.705,1.473.868,3.056,1.3,4.745,1.3,1.732,0,3.336-.433,4.811-1.3Z" style="fill: #f6f3f1; stroke-width: 0px;"/>
      <path d="M370.682,51.147h6.76v4.81h.39c.693-1.646,1.95-3.033,3.771-4.16,1.819-1.126,3.683-1.69,5.59-1.69,1.56,0,2.838.238,3.835.715v7.41c-1.474-.736-3.12-1.105-4.94-1.105-2.34,0-4.301.902-5.882,2.705-1.583,1.803-2.373,4.007-2.373,6.614v16.941h-7.149v-32.24Z" style="fill: #f6f3f1; stroke-width: 0px;"/>
      <path d="M400.16,82.217c-2.535-1.473-4.518-3.52-5.947-6.143-1.431-2.621-2.146-5.558-2.146-8.808,0-3.12.683-5.99,2.048-8.612,1.364-2.622,3.282-4.701,5.752-6.24,2.471-1.538,5.286-2.307,8.45-2.307,3.25,0,6.077.715,8.482,2.145,2.405,1.43,4.235,3.412,5.492,5.947s1.886,5.45,1.886,8.743c0,.39-.022.78-.065,1.17-.044.39-.064.607-.064.65h-24.83c.216,2.947,1.277,5.222,3.185,6.825,1.906,1.604,4.072,2.405,6.5,2.405,3.727,0,6.586-1.732,8.58-5.2l6.11,2.925c-1.431,2.644-3.413,4.756-5.948,6.337-2.534,1.582-5.515,2.373-8.938,2.373-3.163,0-6.012-.737-8.547-2.21ZM416.897,63.302c-.087-1.04-.434-2.102-1.04-3.185-.607-1.083-1.55-2.004-2.827-2.763-1.279-.757-2.871-1.137-4.778-1.137-2.123,0-3.954.65-5.492,1.95-1.538,1.3-2.59,3.013-3.152,5.135h17.29Z" style="fill: #f6f3f1; stroke-width: 0px;"/>
    </g>
  </g>
</svg>