<?xml version="1.0" encoding="UTF-8"?>
<svg id="Layer_2" data-name="Layer 2" xmlns="http://www.w3.org/2000/svg" xmlns:xlink="http://www.w3.org/1999/xlink" viewBox="0 0 563.418 167.424">
  <defs>
    <clipPath id="clippath">
      <rect width="563.418" height="167.424" style="fill: none; stroke-width: 0px;"/>
    </clipPath>
  </defs>
  <g id="Layer_1-2" data-name="Layer 1">
    <g style="clip-path: url(#clippath);">
      <path d="M163.937,85.614c0-6.118-.549-11.975-1.564-17.599h-78.661v32.256l45.305.008c-1.841,10.73-7.756,19.877-16.807,25.981v20.922h26.966c15.736-14.575,24.761-36.111,24.761-61.568" style="fill: #0074ec; stroke-width: 0px;"/>
      <path d="M112.21,126.26c-7.507,5.062-17.17,8.027-28.48,8.027-21.84,0-40.371-14.715-47.007-34.557H8.907v21.582c13.776,27.348,42.107,46.111,74.823,46.111,22.617,0,41.621-7.434,55.446-20.241l-26.966-20.922Z" style="fill: #00aa4b; stroke-width: 0px;"/>
      <path d="M34.098,83.711c0-5.57.931-10.958,2.624-16.019v-21.582H8.907C3.211,57.417,0,70.188,0,83.711s3.211,26.295,8.907,37.601l27.815-21.582c-1.693-5.06-2.624-10.449-2.624-16.019" style="fill: #ffbd00; stroke-width: 0px;"/>
      <path d="M83.73,33.135c12.341,0,23.4,4.25,32.125,12.555l23.897-23.874C125.24,8.295,106.315,0,83.73,0,51.013,0,22.682,18.762,8.906,46.11l27.816,21.582c6.636-19.841,25.168-34.557,47.008-34.557" style="fill: #ff4131; stroke-width: 0px;"/>
      <path d="M214.846,131.01V36.148h32.592c5.741,0,10.952,1.215,15.635,3.643,4.68,2.43,8.412,5.831,11.194,10.202,2.783,4.373,4.174,9.429,4.174,15.171,0,5.653-1.391,10.688-4.174,15.104-2.782,4.416-6.514,7.838-11.194,10.267-4.683,2.43-9.894,3.643-15.635,3.643h-18.018v36.832h-14.574ZM229.42,80.4h18.416c3.445,0,6.36-.73,8.744-2.187,2.385-1.458,4.217-3.355,5.499-5.696,1.279-2.34,1.921-4.79,1.921-7.353s-.642-4.99-1.921-7.288c-1.282-2.295-3.114-4.194-5.499-5.697-2.384-1.501-5.299-2.252-8.744-2.252h-18.416v30.473Z" style="fill: #1a1b1f; stroke-width: 0px;"/>
      <path d="M293.941,53.503c-2.65,0-4.925-.947-6.823-2.848-1.901-1.899-2.849-4.173-2.849-6.822,0-2.738.948-5.012,2.849-6.825,1.898-1.808,4.173-2.715,6.823-2.715,2.737,0,5.034.907,6.889,2.715,1.855,1.813,2.783,4.087,2.783,6.825,0,2.649-.928,4.923-2.783,6.822-1.855,1.901-4.152,2.848-6.889,2.848M286.787,63.441h14.309v67.57h-14.309V63.441Z" style="fill: #1a1b1f; stroke-width: 0px;"/>
      <polygon points="308.912 131.01 332.627 96.695 309.309 63.44 325.871 63.44 341.239 85.964 355.813 63.44 373.036 63.44 349.321 96.695 373.169 131.01 356.475 131.01 340.974 107.824 325.738 131.01 308.912 131.01" style="fill: #1a1b1f; stroke-width: 0px;"/>
      <path d="M406.156,133.129c-6.624,0-12.542-1.546-17.753-4.636-5.212-3.091-9.297-7.331-12.255-12.72-2.961-5.387-4.438-11.526-4.438-18.416,0-6.446,1.411-12.408,4.239-17.886,2.826-5.475,6.777-9.87,11.857-13.182,5.079-3.312,10.931-4.969,17.556-4.969,6.976,0,12.917,1.503,17.819,4.505,4.902,3.004,8.632,7.111,11.195,12.321,2.561,5.212,3.843,11.085,3.843,17.621,0,.974-.023,1.855-.066,2.651-.046.794-.113,1.413-.199,1.854h-52.201c.352,3.71,1.279,6.934,2.783,9.672,1.941,3.445,4.504,6.051,7.684,7.816,3.179,1.768,6.624,2.65,10.334,2.65,4.505,0,8.28-1.037,11.328-3.113,3.047-2.075,5.452-4.657,7.22-7.751l11.792,5.697c-2.915,5.299-6.89,9.605-11.924,12.918-5.034,3.312-11.308,4.968-18.814,4.968M386.548,89.541h37.494c-.089-1.677-.53-3.466-1.325-5.366-.794-1.899-1.943-3.644-3.445-5.234-1.502-1.589-3.401-2.892-5.696-3.908-2.298-1.014-4.991-1.524-8.082-1.524-3.888,0-7.332.994-10.334,2.981-3.004,1.988-5.345,4.749-7.022,8.281-.708,1.502-1.238,3.093-1.59,4.77" style="fill: #1a1b1f; stroke-width: 0px;"/>
      <rect x="446.301" y="36.148" width="14.309" height="94.863" style="fill: #1a1b1f; stroke-width: 0px;"/>
    </g>
  </g>
</svg>