<svg width="139" height="40" viewBox="0 0 139 40" fill="none" xmlns="http://www.w3.org/2000/svg" class="css-119oh74"><path d="M133.852 0.801251C136.235 0.801251 138.175 2.685 138.175 5V35C138.175 37.315 136.235 39.1988 133.852 39.1988H5.14815C2.76456 39.1988 0.82499 37.315 0.82499 35V5C0.82499 2.685 2.76456 0.801251 5.14815 0.801251H133.852ZM133.852 2.38419e-06H5.14815C2.31795 2.38419e-06 0 2.25125 0 5V35C0 37.7488 2.31795 40 5.14815 40H133.852C136.682 40 139 37.7488 139 35V5C139 2.25125 136.682 2.38419e-06 133.852 2.38419e-06Z" fill="white"></path><path d="M9.97212 7.53918C9.66966 7.84668 9.49463 8.32543 9.49463 8.94543V31.0604C9.49463 31.6804 9.66966 32.1592 9.97212 32.4667L10.0468 32.5342L22.8064 20.1467V19.8542L10.0468 7.46668L9.97212 7.53918Z" fill="white"></path><path d="M28.5996 24.2773L24.3511 20.1461V19.8536L28.6047 15.7223L28.7 15.7761L33.7374 18.5598C35.1751 19.3498 35.1751 20.6498 33.7374 21.4448L28.7 24.2236L28.5996 24.2773Z" fill="white"></path><path d="M27.9274 24.993L23.5785 20.7693L10.7441 33.2355C11.2216 33.723 12.0003 33.7818 12.8858 33.2943L27.9274 24.993Z" fill="white"></path><path d="M27.9274 15.0067L12.8858 6.70547C12.0003 6.22297 11.2216 6.28172 10.7441 6.76922L23.5785 19.2305L27.9274 15.0067Z" fill="white"></path><path d="M48.8223 10.244C48.8223 11.079 48.5649 11.7477 48.0578 12.2465C47.4748 12.8377 46.7155 13.1352 45.7849 13.1352C44.8956 13.1352 44.1362 12.8327 43.5133 12.2365C42.8891 11.6315 42.5776 10.889 42.5776 10.0002C42.5776 9.11148 42.8891 8.36898 43.5133 7.76898C44.1362 7.16773 44.8956 6.86523 45.7849 6.86523C46.2277 6.86523 46.6498 6.95398 47.0527 7.11898C47.4542 7.28523 47.7811 7.51023 48.0179 7.78773L47.48 8.31523C47.0668 7.84149 46.5044 7.60774 45.7849 7.60774C45.1363 7.60774 44.5738 7.82773 44.0963 8.27148C43.624 8.71648 43.3872 9.29273 43.3872 10.0002C43.3872 10.7077 43.624 11.289 44.0963 11.734C44.5738 12.1727 45.1363 12.3977 45.7849 12.3977C46.4735 12.3977 47.0527 12.1727 47.5096 11.729C47.8107 11.4352 47.9819 11.0302 48.027 10.5127H45.7849V9.79023H48.776C48.812 9.94648 48.8223 10.0977 48.8223 10.244Z" fill="white" stroke="white" stroke-width="0.16" stroke-miterlimit="10"></path><path d="M53.5679 7.7382H50.7583V9.6382H53.2912V10.3607H50.7583V12.2607H53.5679V12.997H49.9629V7.00195H53.5679V7.7382Z" fill="white" stroke="white" stroke-width="0.16" stroke-miterlimit="10"></path><path d="M56.9167 12.997H56.1213V7.7382H54.3979V7.00195H58.6413V7.7382H56.9167V12.997Z" fill="white" stroke="white" stroke-width="0.16" stroke-miterlimit="10"></path><path d="M61.7119 12.997V7.00195H62.506V12.997H61.7119Z" fill="white" stroke="white" stroke-width="0.16" stroke-miterlimit="10"></path><path d="M66.026 12.997H65.2371V7.7382H63.5073V7.00195H67.7558V7.7382H66.026V12.997Z" fill="white" stroke="white" stroke-width="0.16" stroke-miterlimit="10"></path><path d="M75.7894 12.2265C75.1807 12.8327 74.4265 13.1352 73.5268 13.1352C72.622 13.1352 71.8678 12.8327 71.2591 12.2265C70.6516 11.6215 70.3491 10.879 70.3491 10.0002C70.3491 9.12148 70.6516 8.37898 71.2591 7.77398C71.8678 7.16773 72.622 6.86523 73.5268 6.86523C74.4213 6.86523 75.1755 7.16773 75.7843 7.77898C76.3969 8.38898 76.6994 9.12648 76.6994 10.0002C76.6994 10.879 76.3969 11.6215 75.7894 12.2265ZM71.8472 11.724C72.3054 12.1727 72.8627 12.3977 73.5268 12.3977C74.1858 12.3977 74.7482 12.1727 75.2013 11.724C75.6581 11.2752 75.8898 10.699 75.8898 10.0002C75.8898 9.30148 75.6581 8.72523 75.2013 8.27648C74.7482 7.82773 74.1858 7.60273 73.5268 7.60273C72.8627 7.60273 72.3054 7.82773 71.8472 8.27648C71.3903 8.72523 71.1587 9.30148 71.1587 10.0002C71.1587 10.699 71.3903 11.2752 71.8472 11.724Z" fill="white" stroke="white" stroke-width="0.16" stroke-miterlimit="10"></path><path d="M77.8154 12.997V7.00195H78.7807L81.7821 11.6645H81.8168L81.7821 10.512V7.00195H82.5762V12.997H81.7473L78.6044 8.10445H78.5696L78.6044 9.26195V12.997H77.8154Z" fill="white" stroke="white" stroke-width="0.16" stroke-miterlimit="10"></path><path d="M70.1537 21.7522C67.7353 21.7522 65.7597 23.5397 65.7597 26.0059C65.7597 28.4522 67.7353 30.2584 70.1537 30.2584C72.5772 30.2584 74.5528 28.4522 74.5528 26.0059C74.5528 23.5397 72.5772 21.7522 70.1537 21.7522ZM70.1537 28.5834C68.8267 28.5834 67.6851 27.5197 67.6851 26.0059C67.6851 24.4722 68.8267 23.4272 70.1537 23.4272C71.4806 23.4272 72.6273 24.4722 72.6273 26.0059C72.6273 27.5197 71.4806 28.5834 70.1537 28.5834ZM60.5665 21.7522C58.143 21.7522 56.1726 23.5397 56.1726 26.0059C56.1726 28.4522 58.143 30.2584 60.5665 30.2584C62.9887 30.2584 64.9605 28.4522 64.9605 26.0059C64.9605 23.5397 62.9887 21.7522 60.5665 21.7522ZM60.5665 28.5834C59.2383 28.5834 58.0928 27.5197 58.0928 26.0059C58.0928 24.4722 59.2383 23.4272 60.5665 23.4272C61.8935 23.4272 63.0351 24.4722 63.0351 26.0059C63.0351 27.5197 61.8935 28.5834 60.5665 28.5834ZM49.1582 23.0559V24.8634H53.6024C53.4724 25.8734 53.1249 26.6159 52.592 27.1334C51.9434 27.7584 50.9331 28.4521 49.1582 28.4521C46.4233 28.4521 44.2817 26.3084 44.2817 23.6522C44.2817 20.9959 46.4233 18.8522 49.1582 18.8522C50.637 18.8522 51.713 19.4134 52.5071 20.1409L53.8186 18.8672C52.7079 17.8372 51.2304 17.0459 49.1582 17.0459C45.4078 17.0459 42.2559 20.0097 42.2559 23.6522C42.2559 27.2947 45.4078 30.2584 49.1582 30.2584C51.1853 30.2584 52.7079 29.6134 53.9048 28.4034C55.1314 27.2122 55.5136 25.5372 55.5136 24.1847C55.5136 23.7647 55.4776 23.3784 55.4132 23.0559H49.1582ZM95.8082 24.4572C95.4465 23.5059 94.3306 21.7522 92.0577 21.7522C89.8054 21.7522 87.9302 23.4759 87.9302 26.0059C87.9302 28.3884 89.7861 30.2584 92.274 30.2584C94.2856 30.2584 95.4465 29.0671 95.924 28.3734L94.431 27.4072C93.933 28.1147 93.2547 28.5834 92.274 28.5834C91.2997 28.5834 90.6008 28.1497 90.1529 27.2947L96.0102 24.9409L95.8082 24.4572ZM89.8363 25.8734C89.7861 24.2334 91.1478 23.3934 92.1234 23.3934C92.8879 23.3934 93.5365 23.7647 93.7528 24.2959L89.8363 25.8734ZM85.0756 29.9996H87.001V17.4997H85.0756V29.9996ZM81.9223 22.6997H81.858C81.4255 22.2022 80.6005 21.7522 79.5555 21.7522C77.3624 21.7522 75.3572 23.6222 75.3572 26.0197C75.3572 28.4034 77.3624 30.2584 79.5555 30.2584C80.6005 30.2584 81.4255 29.8046 81.858 29.2922H81.9223V29.9022C81.9223 31.5284 81.0278 32.4021 79.5851 32.4021C78.4087 32.4021 77.679 31.5771 77.3778 30.8834L75.7034 31.5621C76.186 32.6896 77.464 34.0771 79.5851 34.0771C81.8425 34.0771 83.7473 32.7871 83.7473 29.6484V22.0109H81.9223V22.6997ZM79.7202 28.5834C78.3933 28.5834 77.2826 27.5047 77.2826 26.0197C77.2826 24.5209 78.3933 23.4272 79.7202 23.4272C81.0278 23.4272 82.0588 24.5209 82.0588 26.0197C82.0588 27.5047 81.0278 28.5834 79.7202 28.5834ZM104.823 17.4997H100.218V29.9996H102.138V25.2634H104.823C106.955 25.2634 109.047 23.7647 109.047 21.3809C109.047 18.9984 106.95 17.4997 104.823 17.4997ZM104.873 23.5247H102.138V19.2384H104.873C106.307 19.2384 107.125 20.3947 107.125 21.3809C107.125 22.3484 106.307 23.5247 104.873 23.5247ZM116.743 21.7284C115.356 21.7284 113.913 22.3234 113.32 23.6422L115.024 24.3359C115.39 23.6422 116.065 23.4172 116.778 23.4172C117.774 23.4172 118.784 23.9984 118.8 25.0247V25.1559C118.452 24.9609 117.708 24.6722 116.793 24.6722C114.958 24.6722 113.088 25.6534 113.088 27.4847C113.088 29.1597 114.591 30.2384 116.281 30.2384C117.573 30.2384 118.286 29.6722 118.734 29.0134H118.8V29.9796H120.654V25.1847C120.654 22.9684 118.95 21.7284 116.743 21.7284ZM116.511 28.5784C115.883 28.5784 115.008 28.2759 115.008 27.5197C115.008 26.5522 116.1 26.1809 117.044 26.1809C117.89 26.1809 118.286 26.3622 118.8 26.6009C118.649 27.7584 117.623 28.5784 116.511 28.5784ZM127.411 22.0022L125.204 27.4209H125.138L122.857 22.0022H120.786L124.214 29.5746L122.258 33.7884H124.265L129.548 22.0022H127.411ZM110.102 29.9996H112.027V17.4997H110.102V29.9996Z" fill="white"></path></svg>