<svg viewBox="0 0 32 32" fill="none" xmlns="http://www.w3.org/2000/svg" class="css-1j3vop5"><path fill="#dc0714" fill-rule="evenodd" clip-rule="evenodd" d="M16 32C24.8366 32 32 24.8366 32 16C32 7.16344 24.8366 0 16 0C7.16344 0 0 7.16344 0 16C0 24.8366 7.16344 32 16 32ZM11.2867 25.4757L17.837 6.73684H22.5653L16.0127 25.4757H11.2867ZM22.5584 25.698C24.6739 25.698 26.386 23.9653 26.386 21.8247C26.386 19.684 24.667 17.9513 22.5584 17.9513C20.443 17.9513 18.7309 19.684 18.7309 21.8247C18.7309 23.9653 20.443 25.698 22.5584 25.698ZM6.51489 10.5758C9.50815 11.0228 11.8757 9.03107 12.5037 6.73684H17.1105C15.3457 12.1 12.1576 15.6318 5.05263 14.7563L6.51489 10.5758Z"></path></svg>